<!DOCTYPE svg PUBLIC "-//W3C//DTD SVG 1.1//EN" "http://www.w3.org/Graphics/SVG/1.1/DTD/svg11.dtd">
<!-- Uploaded to: SVG Repo, www.svgrepo.com, Transformed by: SVG Repo Mixer Tools -->
<svg width="800px" height="800px" viewBox="0 0 1024 1024" class="icon" version="1.1" xmlns="http://www.w3.org/2000/svg" fill="#000000">
<g id="SVGRepo_bgCarrier" stroke-width="0"/>
<g id="SVGRepo_tracerCarrier" stroke-linecap="round" stroke-linejoin="round"/>
<g id="SVGRepo_iconCarrier">
<path d="M226.2 227.3h-77.8c-8.8 0-16-7.2-16-16v-26.6c0-8.8 7.2-16 16-16h77.8c8.8 0 16 7.2 16 16v26.6c-0.1 8.9-7.2 16-16 16z" fill="#F35426"/>
<path d="M911.1 855.2H113.5c-27.2 0-49.4-22.2-49.4-49.4V252c0-27.2 22.2-49.4 49.4-49.4h797.6c27.2 0 49.4 22.2 49.4 49.4v553.8c0 27.2-22.3 49.4-49.4 49.4z" fill="#E8E8E8"/>
<path d="M64.1 528.9v276.9c0 27.2 22.2 49.4 49.4 49.4h797.6c27.2 0 49.4-22.2 49.4-49.4V528.9H64.1z" fill="#F35426"/>
<path d="M512.3 516.1m-171.8 0a171.8 171.8 0 1 0 343.6 0 171.8 171.8 0 1 0-343.6 0Z" fill="#E8E8E8"/>
<path d="M512.3 707.2c-105.4 0-191.1-85.7-191.1-191.1S406.9 325 512.3 325s191.1 85.7 191.1 191.1-85.7 191.1-191.1 191.1z m0-343.6c-84.1 0-152.5 68.4-152.5 152.5s68.4 152.5 152.5 152.5 152.5-68.4 152.5-152.5-68.4-152.5-152.5-152.5z" fill="#F9C625"/>
<path d="M512.3 516.1m-106.1 0a106.1 106.1 0 1 0 212.2 0 106.1 106.1 0 1 0-212.2 0Z" fill="#F35426"/>
<path d="M854.4 318.7c-19.1 0-34.7-15.6-34.7-34.7s15.6-34.7 34.7-34.7 34.7 15.6 34.7 34.7-15.6 34.7-34.7 34.7z" fill="#F35426"/>
<path d="M551.8 472.7m-28.4 0a28.4 28.4 0 1 0 56.8 0 28.4 28.4 0 1 0-56.8 0Z" fill="#FFFFFF"/>
</g>
</svg>