<?xml version="1.0" encoding="iso-8859-1"?>
<!-- Uploaded to: SVG Repo, www.svgrepo.com, Generator: SVG Repo Mixer Tools -->
<svg height="800px" width="800px" version="1.1" id="Layer_1" xmlns="http://www.w3.org/2000/svg" xmlns:xlink="http://www.w3.org/1999/xlink" 
	 viewBox="0 0 512 512" xml:space="preserve">
<path style="fill:#FFD15D;" d="M322.768,378.435H189.203c-9.217,0-16.696-7.473-16.696-16.696c0-23.017-9.794-55.343-26.174-69.587
	c-44.88-38.994-65.229-97.478-54.434-156.435C106.269,57.153,175.214,0.076,255.844,0c0.043,0,0.098,0,0.152,0
	c44.565,0,86.468,17.342,118,48.848c31.565,31.544,48.946,73.489,48.946,118.108c0,47.968-20.924,93.636-57.402,125.288
	c-16.326,14.163-26.076,46.456-26.076,69.495C339.464,370.962,331.985,378.435,322.768,378.435z"/>
<path style="fill:#FF9F19;" d="M255.985,378.435c-9.217,0-16.696-7.473-16.696-16.696V228.174c0-9.223,7.479-16.696,16.696-16.696
	s16.696,7.473,16.696,16.696v133.565C272.681,370.962,265.203,378.435,255.985,378.435z"/>
<path style="fill:#F2FAFF;" d="M157.616,164.445c-1,0-2.011-0.092-3.022-0.277c-9.076-1.657-15.087-10.359-13.424-19.429
	c8.608-47.059,46.402-84.364,94.043-92.826c9.109-1.593,17.75,4.445,19.359,13.521c1.619,9.076-4.434,17.744-13.511,19.359
	c-33.989,6.033-60.935,32.538-67.043,65.957C172.541,158.805,165.518,164.445,157.616,164.445z"/>
<path style="fill:#485566;" d="M289.377,411.826h-66.783c-9.238,0-16.696,7.457-16.696,16.696v33.391
	c0,27.603,22.483,50.087,50.087,50.087c25.823,0,47.082-19.59,49.864-44.744c0.111-1.781,0.223-3.562,0.223-5.343v-33.391
	C306.072,419.283,298.615,411.826,289.377,411.826z"/>
<path style="fill:#F9B54C;" d="M322.768,378.435c9.217,0,16.696-7.473,16.696-16.696c0-23.038,9.75-55.332,26.076-69.495
	c36.478-31.653,57.402-77.321,57.402-125.288c0-44.62-17.38-86.565-48.946-118.108C342.464,17.342,300.562,0,255.997,0v378.435
	H322.768z"/>
<path style="fill:#36404D;" d="M306.072,428.522v33.391c0,1.781-0.111,3.562-0.223,5.343C303.067,492.41,281.808,512,255.985,512
	V411.826h33.391C298.615,411.826,306.072,419.283,306.072,428.522z"/>
<path style="fill:#F28618;" d="M255.997,378.434c9.213-0.006,16.685-7.475,16.685-16.695V228.174
	c0-9.219-7.472-16.689-16.685-16.695V378.434z"/>
<path style="fill:#576573;" d="M289.377,445.217h-66.783c-27.662,0-50.087-22.424-50.087-50.087v-33.391h166.957v33.391
	C339.464,422.793,317.039,445.217,289.377,445.217z"/>
<path style="fill:#485566;" d="M339.464,395.13v-33.391h-83.467v83.478h33.38C317.039,445.217,339.464,422.793,339.464,395.13z"/>
<path style="fill:#FF9F19;" d="M305.85,189.551c-2.671-25.155-24.042-44.856-49.864-44.856c-27.603,0-50.087,22.483-50.087,50.087
	s22.483,50.087,50.087,50.087s50.087-22.483,50.087-50.087C306.072,193.002,305.961,191.332,305.85,189.551z M255.985,211.478
	c-9.238,0-16.696-7.457-16.696-16.696c0-9.238,7.457-16.696,16.696-16.696s16.696,7.457,16.696,16.696
	C272.681,204.021,265.224,211.478,255.985,211.478z"/>
<path style="fill:#F28618;" d="M306.072,194.783c0,27.603-22.483,50.087-50.087,50.087v-33.391c9.238,0,16.696-7.457,16.696-16.696
	c0-9.238-7.457-16.696-16.696-16.696v-33.391c25.823,0,47.193,19.701,49.864,44.856
	C305.961,191.332,306.072,193.002,306.072,194.783z"/>
</svg>