<svg width="47" height="45" viewBox="0 0 47 45" fill="none" xmlns="http://www.w3.org/2000/svg">
<path fill-rule="evenodd" clip-rule="evenodd" d="M5.19458 21.7262V39.9997C5.19458 42.7611 7.43316 44.9997 10.1946 44.9997H37.3838C40.1452 44.9997 42.3838 42.7612 42.3838 39.9997V22.2437C42.3838 21.9191 42.2262 21.6147 41.9612 21.4273L24.3703 8.98486L5.52624 21.1181C5.31951 21.2512 5.19458 21.4803 5.19458 21.7262ZM23 41V28C23 26.8954 23.8954 26 25 26H35C36.1046 26 37 26.8954 37 28V43H25C23.8954 43 23 42.1046 23 41Z" fill="#FAFF00"/>
<path d="M2 17.279L24.2414 2L45 16.2253" stroke="#FAFF00" stroke-width="3" stroke-linecap="round"/>
</svg>
