<svg width="49" height="50" viewBox="0 0 49 50" fill="none" xmlns="http://www.w3.org/2000/svg">
<path d="M3.5 8.04345C3.5 6.11046 5.067 4.54346 7 4.54346H41.8896C43.8226 4.54346 45.3896 6.11046 45.3896 8.04346V43C45.3896 44.933 43.8226 46.5 41.8896 46.5H7C5.067 46.5 3.5 44.933 3.5 43V8.04345Z" stroke="#FEFECC" stroke-width="3"/>
<path d="M16.5386 36.522H22.2946L16.5386 26.9568L10.7827 36.522H16.5386ZM16.5386 36.522L28.5302 17.3916L39.0827 36.522H16.5386Z" stroke="#FEFECC" stroke-width="2"/>
<path d="M20.0413 15.9567C20.0413 16.9919 19.1824 17.848 18.1016 17.848C17.0209 17.848 16.162 16.9919 16.162 15.9567C16.162 14.9216 17.0209 14.0654 18.1016 14.0654C19.1824 14.0654 20.0413 14.9216 20.0413 15.9567Z" stroke="#FEFECC"/>
</svg>
