<svg width="49" height="50" viewBox="0 0 49 50" fill="none" xmlns="http://www.w3.org/2000/svg">
<path d="M14 13.9473C15.25 22.6512 24.4167 37.1578 24.4167 37.1578C24.4167 37.1578 34 22.2367 34 13.9473" stroke="#FEFECC" stroke-width="3" stroke-linecap="round"/>
<path d="M34 13.9474C34 11.3092 32.9464 8.77901 31.0711 6.91352C29.1957 5.04802 26.6522 4 24 4C21.3478 4 18.8043 5.04802 16.9289 6.91352C15.0536 8.77901 14 11.3092 14 13.9474" stroke="#FEFECC" stroke-width="3"/>
<path d="M29.6666 13.947C29.6666 17.0523 27.1345 19.5786 23.9999 19.5786C20.8653 19.5786 18.3333 17.0523 18.3333 13.947C18.3333 10.8417 20.8653 8.31543 23.9999 8.31543C27.1345 8.31543 29.6666 10.8417 29.6666 13.947Z" stroke="#FEFECC" stroke-width="2"/>
<path d="M32.6179 31.6582H32.916L44 45.9997H4L15.084 31.6582H15.7073" stroke="#FEFECC" stroke-width="3" stroke-linecap="round"/>
</svg>
